<svg viewBox="0 0 320 240" xmlns="http://www.w3.org/2000/svg">
  <defs>
    <radialGradient id="bg2" cx="50%" cy="38%" r="75%">
      <stop offset="0%" stop-color="#151033"/>
      <stop offset="100%" stop-color="#050816"/>
    </radialGradient>
    <linearGradient id="body2" x1="0" y1="0" x2="1" y2="0">
      <stop offset="0%" stop-color="#8A5CFF"/>
      <stop offset="100%" stop-color="#4a2fb0"/>
    </linearGradient>
  </defs>
  <rect width="320" height="240" fill="url(#bg2)"/>
  <g opacity=".16" stroke="#8A5CFF" stroke-width="1">
    <line x1="0" y1="70" x2="320" y2="70"/>
    <line x1="0" y1="130" x2="320" y2="130"/>
    <line x1="0" y1="190" x2="320" y2="190"/>
  </g>
  <ellipse cx="164" cy="196" rx="120" ry="12" fill="#000" opacity=".35"/>
  <!-- SUV side silhouette -->
  <path d="M44 176 C44 150 60 146 78 142 L96 118 C102 108 116 102 134 102 L206 102 C222 102 234 110 240 122 L252 142 C270 146 284 152 284 176 L284 182 L44 182 Z" fill="url(#body2)"/>
  <path d="M100 118 L114 108 C120 104 128 102 136 102 L188 102 C198 102 206 106 212 114 L222 128 L100 128 Z" fill="#cfe0ff" opacity=".85"/>
  <line x1="150" y1="108" x2="150" y2="128" stroke="#4a2fb0" stroke-width="3"/>
  <!-- wheels -->
  <circle cx="100" cy="184" r="22" fill="#0a0f22"/>
  <circle cx="100" cy="184" r="10" fill="#c0a8ff"/>
  <circle cx="248" cy="184" r="22" fill="#0a0f22"/>
  <circle cx="248" cy="184" r="10" fill="#c0a8ff"/>
  <!-- detection frame -->
  <g stroke="#8A5CFF" stroke-width="2.4" fill="none" opacity=".95">
    <path d="M32 96 v-14 h14"/>
    <path d="M288 96 v-14 h-14"/>
    <path d="M32 208 v14 h14"/>
    <path d="M288 208 v14 h-14"/>
  </g>
  <text x="160" y="228" text-anchor="middle" font-family="monospace" font-size="11" fill="#c0a8ff" letter-spacing="2">CAR · MATCH 96%</text>
</svg>
