<svg viewBox="0 0 320 240" xmlns="http://www.w3.org/2000/svg">
  <defs>
    <radialGradient id="bgpl2" cx="50%" cy="38%" r="80%">
      <stop offset="0%" stop-color="#151033"/>
      <stop offset="100%" stop-color="#050816"/>
    </radialGradient>
    <linearGradient id="bumper2" x1="0" y1="0" x2="0" y2="1">
      <stop offset="0%" stop-color="#2f2a50"/>
      <stop offset="100%" stop-color="#140f28"/>
    </linearGradient>
  </defs>
  <rect width="320" height="240" fill="url(#bgpl2)"/>
  <g opacity=".15" stroke="#8A5CFF" stroke-width="1">
    <line x1="0" y1="70" x2="320" y2="70"/><line x1="0" y1="170" x2="320" y2="170"/>
  </g>
  <rect x="0" y="150" width="320" height="90" fill="url(#bumper2)"/>
  <rect x="0" y="150" width="320" height="6" fill="#4a3d78"/>
  <rect x="70" y="98" width="180" height="56" rx="6" fill="#f2f5fb"/>
  <rect x="70" y="98" width="180" height="56" rx="6" fill="none" stroke="#c7cede" stroke-width="2"/>
  <rect x="70" y="98" width="32" height="56" rx="6" fill="#8A5CFF"/>
  <text x="86" y="121" text-anchor="middle" font-family="Arial, sans-serif" font-size="10" font-weight="700" fill="#fff">DIT</text>
  <text x="86" y="140" text-anchor="middle" font-family="Arial, sans-serif" font-size="8" font-weight="700" fill="#ece4ff">EG</text>
  <text x="180" y="138" text-anchor="middle" font-family="Arial, sans-serif" font-size="28" font-weight="800" fill="#111a2e" letter-spacing="3">7742</text>
  <g stroke="#8A5CFF" stroke-width="2.6" fill="none">
    <path d="M60 98 v-10 h12"/>
    <path d="M260 98 v-10 h-12"/>
    <path d="M60 154 v10 h12"/>
    <path d="M260 154 v10 h-12"/>
  </g>
  <line x1="70" y1="126" x2="250" y2="126" stroke="#8A5CFF" stroke-width="1.5" opacity=".55"/>
  <text x="160" y="182" text-anchor="middle" font-family="monospace" font-size="12" fill="#c0a8ff" letter-spacing="2">DIT 7742 · MATCH</text>
</svg>
