<svg viewBox="0 0 320 240" xmlns="http://www.w3.org/2000/svg">
  <defs>
    <radialGradient id="bgf1" cx="50%" cy="38%" r="75%">
      <stop offset="0%" stop-color="#0c1330"/>
      <stop offset="100%" stop-color="#050816"/>
    </radialGradient>
    <linearGradient id="face1" x1="0" y1="0" x2="0" y2="1">
      <stop offset="0%" stop-color="#5f9bff"/>
      <stop offset="100%" stop-color="#2F7BFF"/>
    </linearGradient>
  </defs>
  <rect width="320" height="240" fill="url(#bgf1)"/>
  <ellipse cx="160" cy="122" rx="70" ry="86" fill="url(#face1)" opacity=".18"/>
  <ellipse cx="160" cy="122" rx="70" ry="86" fill="none" stroke="#2F7BFF" stroke-width="1.5" opacity=".7"/>
  <!-- face mesh: sparse recognition landmark dots + connecting lines, deliberately abstract/non-identifying -->
  <g stroke="#5f9bff" stroke-width="1" opacity=".85">
    <line x1="122" y1="96" x2="140" y2="102"/>
    <line x1="140" y1="102" x2="160" y2="98"/>
    <line x1="160" y1="98" x2="180" y2="102"/>
    <line x1="180" y1="102" x2="198" y2="96"/>
    <line x1="140" y1="102" x2="130" y2="128"/>
    <line x1="180" y1="102" x2="190" y2="128"/>
    <line x1="130" y1="128" x2="160" y2="140"/>
    <line x1="190" y1="128" x2="160" y2="140"/>
    <line x1="160" y1="140" x2="160" y2="164"/>
    <line x1="130" y1="128" x2="120" y2="160"/>
    <line x1="190" y1="128" x2="200" y2="160"/>
    <line x1="120" y1="160" x2="145" y2="180"/>
    <line x1="200" y1="160" x2="175" y2="180"/>
    <line x1="145" y1="180" x2="175" y2="180"/>
  </g>
  <g fill="#eaf2ff">
    <circle cx="122" cy="96" r="2.6"/><circle cx="140" cy="102" r="2.6"/><circle cx="160" cy="98" r="2.6"/>
    <circle cx="180" cy="102" r="2.6"/><circle cx="198" cy="96" r="2.6"/><circle cx="130" cy="128" r="2.6"/>
    <circle cx="190" cy="128" r="2.6"/><circle cx="160" cy="140" r="2.6"/><circle cx="160" cy="164" r="2.6"/>
    <circle cx="120" cy="160" r="2.6"/><circle cx="200" cy="160" r="2.6"/><circle cx="145" cy="180" r="2.6"/>
    <circle cx="175" cy="180" r="2.6"/>
  </g>
  <!-- detection frame -->
  <g stroke="#2F7BFF" stroke-width="2.4" fill="none" opacity=".95">
    <path d="M78 44 v-14 h14"/>
    <path d="M242 44 v-14 h-14"/>
    <path d="M78 208 v14 h14"/>
    <path d="M242 208 v14 h-14"/>
  </g>
  <text x="160" y="228" text-anchor="middle" font-family="monospace" font-size="11" fill="#9fc0ff" letter-spacing="2">FACE · ANALYZED</text>
</svg>
