<svg viewBox="0 0 320 240" xmlns="http://www.w3.org/2000/svg">
  <defs>
    <radialGradient id="bgp1" cx="50%" cy="30%" r="80%">
      <stop offset="0%" stop-color="#0c1330"/>
      <stop offset="100%" stop-color="#050816"/>
    </radialGradient>
    <linearGradient id="fig1" x1="0" y1="0" x2="0" y2="1">
      <stop offset="0%" stop-color="#5f9bff"/>
      <stop offset="100%" stop-color="#2F7BFF"/>
    </linearGradient>
  </defs>
  <rect width="320" height="240" fill="url(#bgp1)"/>
  <g opacity=".15" stroke="#2F7BFF" stroke-width="1">
    <line x1="0" y1="60" x2="320" y2="60"/><line x1="0" y1="120" x2="320" y2="120"/><line x1="0" y1="180" x2="320" y2="180"/>
  </g>
  <ellipse cx="130" cy="214" rx="34" ry="7" fill="#000" opacity=".3"/>
  <ellipse cx="210" cy="214" rx="30" ry="7" fill="#000" opacity=".3"/>
  <!-- walking figure, side profile -->
  <g fill="url(#fig1)">
    <circle cx="150" cy="58" r="16"/>
    <path d="M150 74 C170 76 182 92 182 112 L182 140 C182 148 174 150 168 146 L162 118 L156 150 C154 160 130 160 130 148 L136 118 L120 138 C114 146 102 140 106 130 L134 96 C138 84 142 76 150 74Z"/>
    <path d="M156 150 L146 208 C144 214 132 214 132 206 L140 150Z"/>
    <path d="M168 146 L192 200 C196 208 184 214 180 206 L156 152Z"/>
  </g>
  <!-- detection frame -->
  <g stroke="#2F7BFF" stroke-width="2.4" fill="none" opacity=".95">
    <path d="M92 34 v-14 h14"/>
    <path d="M228 34 v-14 h-14"/>
    <path d="M92 214 v14 h14"/>
    <path d="M228 214 v14 h-14"/>
  </g>
  <text x="160" y="230" text-anchor="middle" font-family="monospace" font-size="11" fill="#9fc0ff" letter-spacing="2">PERSON · TRACKED</text>
</svg>
