<svg viewBox="0 0 320 240" xmlns="http://www.w3.org/2000/svg">
  <defs>
    <radialGradient id="bgpl1" cx="50%" cy="38%" r="80%">
      <stop offset="0%" stop-color="#0c1330"/>
      <stop offset="100%" stop-color="#050816"/>
    </radialGradient>
    <linearGradient id="bumper1" x1="0" y1="0" x2="0" y2="1">
      <stop offset="0%" stop-color="#2a3350"/>
      <stop offset="100%" stop-color="#0f1428"/>
    </linearGradient>
  </defs>
  <rect width="320" height="240" fill="url(#bgpl1)"/>
  <g opacity=".15" stroke="#2F7BFF" stroke-width="1">
    <line x1="0" y1="70" x2="320" y2="70"/><line x1="0" y1="170" x2="320" y2="170"/>
  </g>
  <!-- bumper edge -->
  <rect x="0" y="150" width="320" height="90" fill="url(#bumper1)"/>
  <rect x="0" y="150" width="320" height="6" fill="#3a4568"/>
  <!-- plate -->
  <rect x="66" y="96" width="188" height="60" rx="6" fill="#f2f5fb"/>
  <rect x="66" y="96" width="188" height="60" rx="6" fill="none" stroke="#c7cede" stroke-width="2"/>
  <rect x="66" y="96" width="34" height="60" rx="6" fill="#2F7BFF"/>
  <text x="83" y="120" text-anchor="middle" font-family="Arial, sans-serif" font-size="11" font-weight="700" fill="#fff">DIT</text>
  <text x="83" y="140" text-anchor="middle" font-family="Arial, sans-serif" font-size="9" font-weight="700" fill="#e3ecff">EG</text>
  <text x="180" y="140" text-anchor="middle" font-family="Arial, sans-serif" font-size="30" font-weight="800" fill="#111a2e" letter-spacing="3">1024</text>
  <!-- scan brackets around plate -->
  <g stroke="#2F7BFF" stroke-width="2.6" fill="none">
    <path d="M56 96 v-10 h12"/>
    <path d="M264 96 v-10 h-12"/>
    <path d="M56 156 v10 h12"/>
    <path d="M264 156 v10 h-12"/>
  </g>
  <line x1="66" y1="126" x2="254" y2="126" stroke="#2F7BFF" stroke-width="1.5" opacity=".55"/>
  <text x="160" y="182" text-anchor="middle" font-family="monospace" font-size="12" fill="#8fb2f2" letter-spacing="2">DIT 1024 · MATCH</text>
</svg>
