<svg viewBox="0 0 320 240" xmlns="http://www.w3.org/2000/svg">
  <defs>
    <radialGradient id="bgpl3" cx="50%" cy="38%" r="80%">
      <stop offset="0%" stop-color="#0c2418"/>
      <stop offset="100%" stop-color="#050816"/>
    </radialGradient>
    <linearGradient id="bumper3" x1="0" y1="0" x2="0" y2="1">
      <stop offset="0%" stop-color="#254a38"/>
      <stop offset="100%" stop-color="#0f2018"/>
    </linearGradient>
  </defs>
  <rect width="320" height="240" fill="url(#bgpl3)"/>
  <g opacity=".15" stroke="#27C46B" stroke-width="1">
    <line x1="0" y1="70" x2="320" y2="70"/><line x1="0" y1="170" x2="320" y2="170"/>
  </g>
  <rect x="0" y="150" width="320" height="90" fill="url(#bumper3)"/>
  <rect x="0" y="150" width="320" height="6" fill="#3a6b4e"/>
  <rect x="68" y="97" width="184" height="58" rx="6" fill="#f2f5fb"/>
  <rect x="68" y="97" width="184" height="58" rx="6" fill="none" stroke="#c7cede" stroke-width="2"/>
  <rect x="68" y="97" width="33" height="58" rx="6" fill="#27C46B"/>
  <text x="84.5" y="120" text-anchor="middle" font-family="Arial, sans-serif" font-size="10.5" font-weight="700" fill="#fff">DIT</text>
  <text x="84.5" y="139" text-anchor="middle" font-family="Arial, sans-serif" font-size="8.5" font-weight="700" fill="#e3fff0">EG</text>
  <text x="180" y="139" text-anchor="middle" font-family="Arial, sans-serif" font-size="29" font-weight="800" fill="#111a2e" letter-spacing="3">3391</text>
  <g stroke="#27C46B" stroke-width="2.6" fill="none">
    <path d="M58 97 v-10 h12"/>
    <path d="M262 97 v-10 h-12"/>
    <path d="M58 155 v10 h12"/>
    <path d="M262 155 v10 h-12"/>
  </g>
  <line x1="68" y1="126" x2="252" y2="126" stroke="#27C46B" stroke-width="1.5" opacity=".55"/>
  <text x="160" y="182" text-anchor="middle" font-family="monospace" font-size="12" fill="#8ff2bc" letter-spacing="2">DIT 3391 · MATCH</text>
</svg>
