<svg viewBox="0 0 320 240" xmlns="http://www.w3.org/2000/svg">
  <defs>
    <radialGradient id="bgpl5" cx="50%" cy="38%" r="80%">
      <stop offset="0%" stop-color="#1b1030"/>
      <stop offset="100%" stop-color="#050816"/>
    </radialGradient>
    <linearGradient id="bumper5" x1="0" y1="0" x2="0" y2="1">
      <stop offset="0%" stop-color="#332450"/>
      <stop offset="100%" stop-color="#160f28"/>
    </linearGradient>
  </defs>
  <rect width="320" height="240" fill="url(#bgpl5)"/>
  <g opacity=".15" stroke="#C084FC" stroke-width="1">
    <line x1="0" y1="70" x2="320" y2="70"/><line x1="0" y1="170" x2="320" y2="170"/>
  </g>
  <rect x="0" y="150" width="320" height="90" fill="url(#bumper5)"/>
  <rect x="0" y="150" width="320" height="6" fill="#4c3a70"/>
  <!-- Egyptian-style plate: Arabic line on top, Latin transliteration below -->
  <rect x="60" y="92" width="200" height="66" rx="6" fill="#f2f5fb"/>
  <rect x="60" y="92" width="200" height="66" rx="6" fill="none" stroke="#c7cede" stroke-width="2"/>
  <text x="160" y="114" text-anchor="middle" font-family="Arial, sans-serif" font-size="15" font-weight="800" fill="#111a2e" letter-spacing="1">د ل ت ا ۹۲۶</text>
  <line x1="76" y1="122" x2="244" y2="122" stroke="#8890a8" stroke-width="1"/>
  <text x="160" y="145" text-anchor="middle" font-family="Arial, sans-serif" font-size="20" font-weight="800" fill="#111a2e" letter-spacing="3">DLT 926</text>
  <g stroke="#C084FC" stroke-width="2.6" fill="none">
    <path d="M50 92 v-10 h12"/>
    <path d="M270 92 v-10 h-12"/>
    <path d="M50 158 v10 h12"/>
    <path d="M270 158 v10 h-12"/>
  </g>
  <text x="160" y="182" text-anchor="middle" font-family="monospace" font-size="12" fill="#dcbcff" letter-spacing="2">DLT 926 · MATCH</text>
</svg>
